<svg width="17" height="14" viewBox="0 0 17 14" fill="none" xmlns="http://www.w3.org/2000/svg">
<g clip-path="url(#clip0_6_1426)">
<path opacity="0.5" d="M3.12109 8.67738C2.5612 8.0641 2.28125 7.75747 2.28125 6.84695C2.28125 5.93643 2.5612 5.6298 3.12109 5.01652C4.23903 3.79198 6.11393 2.40372 8.86875 2.40372C11.6236 2.40372 13.4985 3.79198 14.6164 5.01652C15.1763 5.6298 15.4563 5.93643 15.4563 6.84695C15.4563 7.75747 15.1763 8.0641 14.6164 8.67738C13.4985 9.90192 11.6236 11.2902 8.86875 11.2902C6.11393 11.2902 4.23903 9.90192 3.12109 8.67738Z" stroke="#454545" stroke-width="1.5"/>
<path d="M10.845 6.84694C10.845 7.76716 9.96019 8.51315 8.86874 8.51315C7.77728 8.51315 6.89249 7.76716 6.89249 6.84694C6.89249 5.92671 7.77728 5.18073 8.86874 5.18073C9.96019 5.18073 10.845 5.92671 10.845 6.84694Z" stroke="#454545" stroke-width="1.5"/>
</g>
<defs>
<clipPath id="clip0_6_1426">
<rect width="15.81" height="13.3297" fill="white" transform="translate(0.963745 0.182098)"/>
</clipPath>
</defs>
</svg>
