<svg width="17" height="14" viewBox="0 0 17 14" fill="none" xmlns="http://www.w3.org/2000/svg">
<path opacity="0.5" d="M8.39374 3.23737L9.71124 4.34785" stroke="#1C274C" stroke-width="1.5" stroke-linecap="round"/>
<path d="M6.39229 10.6853L6.80744 10.0607L6.39229 10.6853ZM8.39374 3.23718L7.89956 3.80134C8.18243 4.04913 8.60506 4.04913 8.88793 3.80134L8.39374 3.23718ZM10.3952 10.6853L10.8104 11.3099L10.3952 10.6853ZM6.80744 10.0607C5.7916 9.3855 4.73129 8.75675 3.88881 7.95691C3.06998 7.17953 2.55624 6.32778 2.55624 5.25689H1.05624C1.05624 6.88689 1.86641 8.10521 2.85604 9.04475C3.82202 9.96183 5.05473 10.6968 5.97714 11.3099L6.80744 10.0607ZM2.55624 5.25689C2.55624 3.33875 5.31342 1.53597 7.89956 3.80134L8.88793 2.67302C5.54553 -0.254824 1.05624 1.77324 1.05624 5.25689H2.55624ZM5.97714 11.3099C6.31296 11.5331 6.68808 11.7812 7.07101 11.9698C7.45593 12.1595 7.9038 12.3179 8.39374 12.3179V10.8179C8.22494 10.8179 8.01406 10.7623 7.73393 10.6243C7.45181 10.4853 7.15557 10.2921 6.80744 10.0607L5.97714 11.3099ZM10.8104 11.3099C11.7328 10.6968 12.9655 9.96183 13.9315 9.04475C14.9211 8.10521 15.7312 6.88689 15.7312 5.25689H14.2312C14.2312 6.32778 13.7175 7.17953 12.8987 7.95691C12.0562 8.75675 10.9959 9.3855 9.98005 10.0607L10.8104 11.3099ZM15.7312 5.25689C15.7312 1.77324 11.242 -0.254824 7.89956 2.67302L8.88793 3.80134C11.4741 1.53597 14.2312 3.33875 14.2312 5.25689H15.7312ZM9.98005 10.0607C9.63192 10.2921 9.33568 10.4853 9.05356 10.6243C8.77343 10.7623 8.56255 10.8179 8.39374 10.8179V12.3179C8.88369 12.3179 9.33156 12.1595 9.71648 11.9698C10.0994 11.7812 10.4745 11.5331 10.8104 11.3099L9.98005 10.0607Z" fill="#1C274C"/>
</svg>
