<svg width="64" height="35" viewBox="0 0 64 35" fill="none" xmlns="http://www.w3.org/2000/svg">
<path d="M24.5938 24C24.0078 24 23.7148 23.7461 23.7148 23.2383V22.2773C23.7148 21.7383 23.9141 21.1953 24.3125 20.6484L31.9297 10.125V10.043C31.4609 10.082 30.9922 10.1016 30.5234 10.1016H25.0625C24.4766 10.1016 24.1836 9.84766 24.1836 9.33984V7.95703C24.1836 7.44922 24.4766 7.19531 25.0625 7.19531H35.75C36.3359 7.19531 36.6289 7.44922 36.6289 7.95703V8.74219C36.6289 9.15625 36.4922 9.55078 36.2188 9.92578L28.1328 21.0703V21.1523C28.6016 21.1133 29.0703 21.0938 29.5391 21.0938H36.0781C36.6641 21.0938 36.957 21.3477 36.957 21.8555V23.2383C36.957 23.7461 36.6641 24 36.0781 24H24.5938ZM39.9688 24C39.5 24 39.2656 23.7656 39.2656 23.2969V12.3984C39.2656 11.9297 39.5 11.6953 39.9688 11.6953H41.8438C42.3125 11.6953 42.5469 11.9297 42.5469 12.3984V23.2969C42.5469 23.7656 42.3125 24 41.8438 24H39.9688ZM39.9688 9.89062C39.5 9.89062 39.2656 9.65625 39.2656 9.1875V7.6875C39.2656 7.21875 39.5 6.98438 39.9688 6.98438H41.8438C42.3125 6.98438 42.5469 7.21875 42.5469 7.6875V9.1875C42.5469 9.65625 42.3125 9.89062 41.8438 9.89062H39.9688ZM46.4375 24C45.9688 24 45.7344 23.7656 45.7344 23.2969V9.45703C45.7344 9.10547 45.8164 8.78516 45.9805 8.49609L46.8828 6.91406C47.0547 6.61719 47.2578 6.46875 47.4922 6.46875H48.3125C48.7812 6.46875 49.0156 6.70312 49.0156 7.17188V23.2969C49.0156 23.7656 48.7812 24 48.3125 24H46.4375ZM51.5469 20.7188C51.5469 19.1562 52.293 18.0234 53.7852 17.3203C55.2773 16.6172 56.9805 16.2422 58.8945 16.1953V15.7266C58.8945 15.0078 58.7148 14.5 58.3555 14.2031C57.9961 13.9062 57.4961 13.7578 56.8555 13.7578C56.4023 13.7578 56 13.8242 55.6484 13.957C55.3047 14.082 55.0039 14.2305 54.7461 14.4023C54.4961 14.5664 54.2695 14.7344 54.0664 14.9062C53.707 15.2188 53.4102 15.2344 53.1758 14.9531L52.2031 13.7578C51.9609 13.4609 52.0195 13.1562 52.3789 12.8438C52.6523 12.6016 52.9688 12.3906 53.3281 12.2109C53.6953 12.0312 54.1797 11.8633 54.7812 11.707C55.3828 11.543 56.1641 11.4609 57.125 11.4609C58.75 11.4609 59.9961 11.8359 60.8633 12.5859C61.7383 13.3359 62.1758 14.4414 62.1758 15.9023V23.2969C62.1758 23.7656 61.9414 24 61.4727 24H59.5508C59.1289 24 58.918 23.7656 58.918 23.2969V22.9453H58.8945C58.4336 23.3906 57.8789 23.7188 57.2305 23.9297C56.5898 24.1328 56 24.2344 55.4609 24.2344C54.1797 24.2344 53.207 23.9219 52.543 23.2969C51.8789 22.6641 51.5469 21.8047 51.5469 20.7188ZM55.0156 20.6484C55.0156 20.9219 55.0703 21.1602 55.1797 21.3633C55.2891 21.5586 55.4609 21.7031 55.6953 21.7969C55.9297 21.8906 56.1914 21.9375 56.4805 21.9375C56.8789 21.9375 57.2656 21.8828 57.6406 21.7734C58.0156 21.6641 58.4336 21.4062 58.8945 21V18.457C57.582 18.6055 56.7031 18.7969 56.2578 19.0312C55.8125 19.2656 55.4922 19.5078 55.2969 19.7578C55.1094 20.0078 55.0156 20.3047 55.0156 20.6484Z" fill="black"/>
<circle cx="9" cy="16" r="9" fill="#E92F5D"/>
</svg>
