<svg width="244" height="102" viewBox="0 0 244 102" fill="none" xmlns="http://www.w3.org/2000/svg">
<path d="M61.375 97C59.0312 97 57.8594 95.9844 57.8594 93.9531V90.1094C57.8594 87.9531 58.6562 85.7812 60.25 83.5938L90.7188 41.5V41.1719C88.8438 41.3281 86.9688 41.4062 85.0938 41.4062H63.25C60.9062 41.4062 59.7344 40.3906 59.7344 38.3594V32.8281C59.7344 30.7969 60.9062 29.7812 63.25 29.7812H106C108.344 29.7812 109.516 30.7969 109.516 32.8281V35.9688C109.516 37.625 108.969 39.2031 107.875 40.7031L75.5312 85.2812V85.6094C77.4062 85.4531 79.2812 85.375 81.1562 85.375H107.312C109.656 85.375 110.828 86.3906 110.828 88.4219V93.9531C110.828 95.9844 109.656 97 107.312 97H61.375ZM122.875 97C121 97 120.062 96.0625 120.062 94.1875V50.5938C120.062 48.7188 121 47.7812 122.875 47.7812H130.375C132.25 47.7812 133.188 48.7188 133.188 50.5938V94.1875C133.188 96.0625 132.25 97 130.375 97H122.875ZM122.875 40.5625C121 40.5625 120.062 39.625 120.062 37.75V31.75C120.062 29.875 121 28.9375 122.875 28.9375H130.375C132.25 28.9375 133.188 29.875 133.188 31.75V37.75C133.188 39.625 132.25 40.5625 130.375 40.5625H122.875ZM148.75 97C146.875 97 145.938 96.0625 145.938 94.1875V38.8281C145.938 37.4219 146.266 36.1406 146.922 34.9844L150.531 28.6562C151.219 27.4688 152.031 26.875 152.969 26.875H156.25C158.125 26.875 159.062 27.8125 159.062 29.6875V94.1875C159.062 96.0625 158.125 97 156.25 97H148.75ZM169.188 83.875C169.188 77.625 172.172 73.0938 178.141 70.2812C184.109 67.4688 190.922 65.9688 198.578 65.7812V63.9062C198.578 61.0312 197.859 59 196.422 57.8125C194.984 56.625 192.984 56.0312 190.422 56.0312C188.609 56.0312 187 56.2969 185.594 56.8281C184.219 57.3281 183.016 57.9219 181.984 58.6094C180.984 59.2656 180.078 59.9375 179.266 60.625C177.828 61.875 176.641 61.9375 175.703 60.8125L171.812 56.0312C170.844 54.8438 171.078 53.625 172.516 52.375C173.609 51.4062 174.875 50.5625 176.312 49.8438C177.781 49.125 179.719 48.4531 182.125 47.8281C184.531 47.1719 187.656 46.8438 191.5 46.8438C198 46.8438 202.984 48.3438 206.453 51.3438C209.953 54.3438 211.703 58.7656 211.703 64.6094V94.1875C211.703 96.0625 210.766 97 208.891 97H201.203C199.516 97 198.672 96.0625 198.672 94.1875V92.7812H198.578C196.734 94.5625 194.516 95.875 191.922 96.7188C189.359 97.5312 187 97.9375 184.844 97.9375C179.719 97.9375 175.828 96.6875 173.172 94.1875C170.516 91.6562 169.188 88.2188 169.188 83.875ZM183.062 83.5938C183.062 84.6875 183.281 85.6406 183.719 86.4531C184.156 87.2344 184.844 87.8125 185.781 88.1875C186.719 88.5625 187.766 88.75 188.922 88.75C190.516 88.75 192.062 88.5312 193.562 88.0938C195.062 87.6562 196.734 86.625 198.578 85V74.8281C193.328 75.4219 189.812 76.1875 188.031 77.125C186.25 78.0625 184.969 79.0312 184.188 80.0312C183.438 81.0312 183.062 82.2188 183.062 83.5938Z" fill="white"/>
<circle cx="20.25" cy="63.25" r="20.25" fill="#E92F5D"/>
</svg>
